<?xml version="1.0" encoding="UTF-8"?>
<svg version="1.1" xmlns="http://www.w3.org/2000/svg" width="2000" height="2000">
<path d="M0 0 C660 0 1320 0 2000 0 C2000 660 2000 1320 2000 2000 C1340 2000 680 2000 0 2000 C0 1340 0 680 0 0 Z " fill="#000000" transform="translate(0,0)"/>
<path d="M0 0 C18.15 0 36.3 0 55 0 C55.01458252 4.59180176 55.02916504 9.18360352 55.04418945 13.91455078 C55.09460613 29.11375094 55.16106553 44.31285001 55.23571491 59.51194954 C55.28056982 68.72393775 55.32000792 77.93588819 55.34643555 87.14794922 C55.36949944 95.18260026 55.40299022 103.21713073 55.44870156 111.25168598 C55.47252127 115.50101084 55.4913234 119.75021712 55.49761391 123.99960709 C55.50371617 128.01010002 55.52389825 132.02029 55.55427551 136.03067017 C55.56297424 137.49219524 55.56679555 138.95376004 55.56500816 140.41530991 C55.55008802 158.26608562 58.41654175 174.72640693 71 188 C73.52258042 190.27380523 76.13526532 192.18094794 79 194 C79.69867187 194.45117188 80.39734375 194.90234375 81.1171875 195.3671875 C88.61182413 199.874638 96.44130872 201.57355145 105 203 C105 136.01 105 69.02 105 0 C123.15 0 141.3 0 160 0 C160 116.49 160 232.98 160 353 C189.761875 352.87625 219.52375 352.7525 250.1875 352.625 C264.23155396 352.57400146 264.23155396 352.57400146 278.55932617 352.52197266 C287.02537397 352.48201906 287.02537397 352.48201906 295.4914093 352.43954468 C299.23298306 352.42084005 302.97453403 352.40739767 306.71614075 352.39730835 C335.42752754 352.48689982 335.42752754 352.48689982 364 350 C364.82209646 349.89078846 365.64419292 349.78157692 366.4912014 349.66905594 C404.41955099 344.59528911 441.08320464 330.05722992 471 306 C471.98613281 305.21753906 472.97226563 304.43507813 473.98828125 303.62890625 C488.64162496 291.7600897 501.85183338 278.19860407 513 263 C513.66644531 262.14019531 514.33289062 261.28039063 515.01953125 260.39453125 C532.07096639 237.99498814 543.01083006 212.46930337 552 186 C552.27481201 185.20851563 552.54962402 184.41703125 552.83276367 183.6015625 C571.50404182 129.14712664 571.00856334 62.87381607 559.31958008 6.99755859 C559 5 559 5 559 1 C579.79 1 600.58 1 622 1 C626.44444444 22.11111111 626.44444444 22.11111111 627.60546875 30.3359375 C627.85168172 31.99848448 628.13813743 33.65615277 628.484375 35.30078125 C635.40525194 71.53052341 633.06139966 115.08867038 625 151 C624.81099121 151.88252441 624.62198242 152.76504883 624.42724609 153.67431641 C611.48377331 213.64872955 581.53820547 269.34579905 534 309 C533.5138623 309.41056641 533.02772461 309.82113281 532.52685547 310.24414062 C516.9588311 323.32745777 499.96441053 334.49408492 482 344 C481.38979004 344.33161133 480.77958008 344.66322266 480.15087891 345.00488281 C462.18253772 354.74544042 442.56140349 361.25415099 423 367 C421.75605469 367.36738281 420.51210937 367.73476562 419.23046875 368.11328125 C396.0881855 374.60716138 372.06492432 377.85466719 348.07174683 378.57493591 C346.77292663 378.61568031 345.47410642 378.6564247 344.13592803 378.69840378 C330.70237108 379.09867496 317.27036064 379.13717701 303.83147836 379.11606562 C300.26960038 379.11163452 296.70772347 379.11321624 293.14584351 379.1139679 C287.01418741 379.11448534 280.88254218 379.11142158 274.75088882 379.10573006 C265.88619393 379.09750715 257.02150415 379.09498896 248.15680586 379.09374207 C233.76485329 379.09156823 219.37290648 379.08495403 204.98095703 379.07543945 C191.02327503 379.06622172 177.0655946 379.05916239 163.10791016 379.05493164 C162.24358915 379.05466892 161.37926815 379.05440619 160.4887556 379.05413551 C156.15152584 379.05283021 151.81429606 379.05156657 147.47706628 379.05032361 C111.65137338 379.04000308 75.82568732 379.02235517 40 379 C40 376.03 40 373.06 40 370 C41.3509375 369.95101563 42.701875 369.90203125 44.09375 369.8515625 C45.89585144 369.77647494 47.69793385 369.70092975 49.5 369.625 C50.8303125 369.57859375 50.8303125 369.57859375 52.1875 369.53125 C66.0192364 368.92102634 79.00175373 363.88767681 89.04296875 354.14453125 C96.23607363 346.26226663 99.83170185 338.06785652 103 328 C103.33 327.01 103.66 326.02 104 325 C104.10058276 323.45214089 104.14616784 321.90039635 104.15821838 320.34931946 C104.17287942 318.91990886 104.17287942 318.91990886 104.18783665 317.46162128 C104.1936069 316.41379066 104.19937716 315.36596003 104.20532227 314.28637695 C104.21535499 313.16593837 104.22538771 312.04549978 104.23572445 310.89110851 C104.26715823 307.25685394 104.29190081 303.62258847 104.31640625 299.98828125 C104.33480518 297.74751424 104.35364162 295.50675078 104.3729248 293.26599121 C104.44142541 284.94820283 104.50144426 276.63034636 104.5625 268.3125 C104.706875 249.729375 104.85125 231.14625 105 212 C48.9 212 -7.2 212 -65 212 C-65 209.03 -65 206.06 -65 203 C-62.82664062 202.96132812 -62.82664062 202.96132812 -60.609375 202.921875 C-42.78104044 202.46090371 -26.84835116 199.51658692 -14 186 C-6.04172772 176.56351732 -0.91019853 164.87596296 -0.84178162 152.48272705 C-0.83684364 151.83002453 -0.83190566 151.177322 -0.82681805 150.50484061 C-0.81147228 148.31996136 -0.80309039 146.13511144 -0.79467773 143.95019531 C-0.78509691 142.38312015 -0.77508671 140.81604755 -0.76467896 139.24897766 C-0.73764596 134.99523442 -0.7166277 130.74148011 -0.69667697 126.48769855 C-0.67480753 122.04205113 -0.64742352 117.59643779 -0.62062073 113.15081787 C-0.57070681 104.7325943 -0.52576314 96.31435181 -0.48259836 87.89609122 C-0.43321488 78.31211963 -0.37830086 68.72818223 -0.32291877 59.14424372 C-0.20911869 39.42952615 -0.10300544 19.71477713 0 0 Z " fill="#FDFDFD" transform="translate(793,1046)"/>
<path d="M0 0 C0 34.98 0 69.96 0 106 C-2.64 106 -5.28 106 -8 106 C-8.01458252 105.42668945 -8.02916504 104.85337891 -8.04418945 104.26269531 C-8.60153623 84.6236068 -10.63093397 70.18619696 -24.5078125 55.328125 C-33.98536775 46.47448404 -45.03807268 41.90964199 -57.9412384 41.84178162 C-58.97057646 41.83437465 -58.97057646 41.83437465 -60.02070922 41.82681805 C-62.31303882 41.81149765 -64.60534053 41.8030973 -66.89770508 41.79467773 C-68.54374434 41.78509491 -70.18978116 41.7750846 -71.83581543 41.76467896 C-76.30023737 41.73766759 -80.76466984 41.71663764 -85.22912812 41.69667697 C-89.89631708 41.67479416 -94.56347372 41.6474167 -99.2306366 41.62062073 C-108.06673623 41.57072488 -116.90285383 41.52577452 -125.73898858 41.48259836 C-137.68056195 41.42396246 -149.6220928 41.35769227 -161.5636282 41.29184818 C-180.37572347 41.18832211 -199.18785527 41.09500062 -218 41 C-218 88.85 -218 136.7 -218 186 C-208.43 185.01 -198.86 184.02 -189 183 C-183.62687357 182.54500143 -178.29305719 182.11968139 -172.9140625 181.82421875 C-172.19737019 181.78472296 -171.48067787 181.74522717 -170.74226761 181.70453453 C-144.26630281 180.30857543 -117.68510605 180.73828301 -91.18041253 180.79940212 C-85.11438473 180.81274273 -79.04839311 180.81510337 -72.98235261 180.8144539 C-65.57648309 180.81376925 -58.17063414 180.82074979 -50.76477098 180.8299005 C-48.6898633 180.83198954 -46.61495913 180.83273567 -44.54005051 180.83313942 C-28.6920862 180.84211018 -12.88561308 181.08665671 2.94862366 181.76312256 C9.13761074 182.02243966 15.32611944 182.14923836 21.51953125 182.24609375 C23.11816246 182.27117335 23.11816246 182.27117335 24.74908924 182.29675961 C26.72965507 182.32724016 28.71022416 182.35750958 30.6907959 182.38760376 C108.36965922 183.62919588 185.72072298 196.46722117 249 245 C249.51272461 245.38414062 250.02544922 245.76828125 250.55371094 246.1640625 C271.76373256 262.06220482 289.02434994 280.97789008 305 302 C305.59039063 302.74378906 306.18078125 303.48757813 306.7890625 304.25390625 C308 306 308 306 308 308 C300.25537324 308.37307195 292.51289817 308.6561238 284.76150894 308.82899475 C281.16017729 308.91204445 277.56504515 309.02427743 273.96728516 309.20703125 C250.80154165 310.35323521 250.80154165 310.35323521 244.57159424 306.49676514 C240.74764928 302.89762684 238.36665404 298.77680942 236.11515808 294.07902527 C234.20805291 290.52354744 231.55042329 287.62027932 228.875 284.625 C228.34817123 284.02119003 227.82134247 283.41738007 227.27854919 282.79527283 C219.56733403 273.96515022 211.20954237 266.24318062 202 259 C201.02546875 258.20851563 200.0509375 257.41703125 199.046875 256.6015625 C185.52353106 245.8304569 170.63732878 237.30852517 155 230 C153.93394531 229.49082031 152.86789062 228.98164062 151.76953125 228.45703125 C136.2937451 221.42601026 119.75965391 216.49547089 103.125 213.125 C101.72157349 212.83870728 101.72157349 212.83870728 100.28979492 212.54663086 C84.57664009 209.57015393 68.81748044 208.70023351 52.8605957 208.68115234 C51.03515189 208.67182211 49.20971223 208.66164902 47.38427734 208.65071106 C42.49507125 208.62374524 37.60589338 208.60836259 32.71663308 208.59528303 C27.58239317 208.57950383 22.44820974 208.55276197 17.31401062 208.5272522 C7.62131463 208.48072336 -2.07139229 208.44385511 -11.76414186 208.41057932 C-24.88290219 208.36497245 -38.00159205 208.30419541 -51.12029362 208.24433136 C-71.74682684 208.15060172 -92.37338141 208.07692723 -113 208 C-113 241.33 -113 274.66 -113 309 C-131.15 309 -149.3 309 -168 309 C-168 275.67 -168 242.34 -168 208 C-169.98 208.33 -171.96 208.66 -174 209 C-175.98373239 209.1284848 -177.97005275 209.22109186 -179.95703125 209.28125 C-181.62668945 209.33732422 -181.62668945 209.33732422 -183.33007812 209.39453125 C-184.47927734 209.42933594 -185.62847656 209.46414063 -186.8125 209.5 C-195.80604253 209.73960933 -195.80604253 209.73960933 -204.76171875 210.53125 C-209 211 -209 211 -218 211 C-218 243.34 -218 275.68 -218 309 C-236.15 309 -254.3 309 -273 309 C-273 280.29 -273 251.58 -273 222 C-284.86372185 225.32323397 -284.86372185 225.32323397 -296.125 229.8125 C-296.88578857 230.15941895 -297.64657715 230.50633789 -298.43041992 230.86376953 C-310.01823621 236.23537759 -320.11194544 242.98273734 -330 251 C-330.55365234 251.4439209 -331.10730469 251.8878418 -331.67773438 252.34521484 C-348.89786303 266.21031843 -361.18761075 283.0157611 -372.2578125 302.0234375 C-373.44513489 304.05200176 -374.69618224 306.04427337 -376 308 C-377.875 308.328125 -377.875 308.328125 -380 308.25 C-380.70125 308.23453125 -381.4025 308.2190625 -382.125 308.203125 C-384 308 -384 308 -386 307 C-385.46184323 301.30450755 -383.88768401 296.80106244 -381.5 291.625 C-381.14542725 290.84552002 -380.79085449 290.06604004 -380.42553711 289.26293945 C-374.3515284 276.08599161 -367.67672805 263.65250121 -359 252 C-358.38898438 251.1646875 -357.77796875 250.329375 -357.1484375 249.46875 C-344.37253201 232.72415898 -328.48638536 219.86368478 -310 210 C-309.071875 209.47792969 -308.14375 208.95585938 -307.1875 208.41796875 C-300.69835044 204.92452033 -293.96668578 202.47131769 -287 200.125 C-286.07888428 199.81425537 -285.15776855 199.50351074 -284.20874023 199.18334961 C-280.20268475 197.8768263 -277.26821798 197 -273 197 C-273 145.52 -273 94.04 -273 41 C-307.06549107 41.09068525 -307.06549107 41.09068525 -341.13085938 41.20898438 C-355.03115637 41.26338337 -368.93141717 41.31480014 -382.83178711 41.34643555 C-392.95728278 41.36949387 -403.08268269 41.40297868 -413.20810229 41.44870156 C-418.56360903 41.47252855 -423.91902156 41.49132602 -429.27458 41.49761391 C-434.32825991 41.50371272 -439.38169906 41.52388321 -444.43528938 41.55427551 C-446.27773484 41.56297958 -448.12021185 41.56679442 -449.962677 41.56500816 C-479.77680545 41.54525191 -509.88837508 48.23156611 -533 68 C-533.54857666 68.44359863 -534.09715332 68.88719727 -534.66235352 69.34423828 C-538.87956308 72.81277984 -542.24949565 76.44856266 -545.4375 80.875 C-545.90486572 81.52210938 -546.37223145 82.16921875 -546.85375977 82.8359375 C-557.64659205 98.19361915 -564.48049219 114.94100564 -563 134 C-562.9395752 134.80324707 -562.87915039 135.60649414 -562.81689453 136.43408203 C-561.67910814 150.09512091 -558.3322502 161.57666646 -552.78417969 174.06689453 C-551.86112203 176.34235237 -551.32309097 178.56702707 -551 181 C-554.38340954 184.02090137 -554.38340954 184.02090137 -556.84375 183.9375 C-560.0224179 182.55547048 -561.72339187 180.14096512 -563.75 177.4375 C-564.18393066 176.86467285 -564.61786133 176.2918457 -565.06494141 175.70166016 C-572.15554212 166.00952817 -577.65859028 154.5295177 -581 143 C-581.2638147 142.09133179 -581.2638147 142.09133179 -581.53295898 141.16430664 C-583.31987087 134.24786913 -583.34531412 127.42365295 -583.3125 120.3125 C-583.30758545 119.06460693 -583.3026709 117.81671387 -583.29760742 116.53100586 C-583.18835092 107.96137378 -582.70050551 100.18827976 -580 92 C-579.64808594 90.91332031 -579.29617188 89.82664062 -578.93359375 88.70703125 C-568.97002492 60.65777641 -547.25621964 42.68859635 -521.16479492 30.08374023 C-518.1330692 28.6647086 -515.07475875 27.3237097 -512 26 C-511.13761719 25.62230469 -510.27523437 25.24460937 -509.38671875 24.85546875 C-503.22677801 22.38952756 -496.82044797 20.88890894 -490.375 19.375 C-489.51124756 19.16858887 -488.64749512 18.96217773 -487.75756836 18.74951172 C-473.83093298 15.61624147 -459.88543665 14.70004295 -445.65534973 14.74171448 C-444.08638305 14.73885056 -442.51741778 14.73510758 -440.94845504 14.73057598 C-436.68935543 14.72070852 -432.43033929 14.72293783 -428.17123377 14.72730291 C-423.55672747 14.72980065 -418.94224194 14.72068308 -414.32774353 14.71292114 C-406.34339338 14.70092435 -398.35906311 14.69577071 -390.37470436 14.69503975 C-378.79827614 14.69370716 -367.22189567 14.67853368 -355.64548441 14.65954458 C-336.81615244 14.628755 -317.98681925 14.60456881 -299.1574707 14.58666992 C-298.0325387 14.58559724 -296.9076067 14.58452456 -295.74858584 14.58341938 C-283.21563138 14.57161477 -270.68267642 14.56140672 -258.14971924 14.55297852 C-253.61226398 14.54990469 -249.07480874 14.54681585 -244.53735352 14.54370117 C-243.4177496 14.54293583 -242.29814568 14.54217049 -241.14461438 14.54138196 C-222.39700554 14.52824646 -203.64943123 14.50353197 -184.90184802 14.46995777 C-173.37322195 14.44980015 -161.84467005 14.43935993 -150.31602623 14.44194698 C-142.39614353 14.44299146 -134.47631907 14.43319626 -126.55645672 14.41530795 C-122.00585748 14.40538233 -117.45538723 14.40000316 -112.90478134 14.40807533 C-85.85397859 14.45141792 -59.2764024 13.20799943 -32.625 8.125 C-31.30743427 7.89112227 -29.98972408 7.65805701 -28.671875 7.42578125 C-20.23227513 5.88920601 -12.18974169 3.65921801 -4.04833984 0.98388672 C-1 0 -1 0 0 0 Z " fill="#FCFCFC" transform="translate(1066,649)"/>
<path d="M0 0 C4.69937444 2.05063612 7.55204745 5.20516969 10.08203125 9.59375 C12.14986295 15.01410883 11.92916424 20.84914696 10.30078125 26.37109375 C7.91409653 31.69833517 4.25309088 35.37345456 -1 38 C-11.60402883 39.17163395 -11.60402883 39.17163395 -16.30859375 36.87109375 C-20.80595834 33.16681281 -23.64661654 29.1274436 -24.3125 23.234375 C-24.57707903 16.65297156 -24.05522575 11.34102904 -20 6 C-13.8436068 -0.28203388 -8.54448959 -0.77269958 0 0 Z " fill="#030303" transform="translate(1206,978)"/>
<path d="M0 0 C21.69712794 0 21.69712794 0 27.609375 5.49609375 C31.99929974 10.4409247 32.34834715 14.799944 32.28125 21.140625 C31.73332527 26.71119307 29.52617803 30.51295474 25.5625 34.375 C16.66928906 40.01459718 12.40430503 38 0 38 C0 25.46 0 12.92 0 0 Z " fill="#050505" transform="translate(826,978)"/>
<path d="M0 0 C17 0 17 0 22 3 C24.46621866 6.69932798 24.67202893 9.70741523 24 14 C21.49777426 18.33077532 18.53343922 20.04237852 14 22 C14.5053125 22.69867187 15.010625 23.39734375 15.53125 24.1171875 C16.50578125 25.48230469 16.50578125 25.48230469 17.5 26.875 C18.1496875 27.77992188 18.799375 28.68484375 19.46875 29.6171875 C21 32 21 32 21 34 C23.31 34 25.62 34 28 34 C28 35.32 28 36.64 28 38 C21.10891089 38.83168317 21.10891089 38.83168317 18.34375 36.7578125 C14.90563426 32.78934912 12.14109389 28.28442258 9.39453125 23.8203125 C8.04204836 21.70247352 8.04204836 21.70247352 5 21 C5 26.61 5 32.22 5 38 C3.35 38 1.7 38 0 38 C0 25.46 0 12.92 0 0 Z " fill="#E4E4E4" transform="translate(1407,978)"/>
<path d="M0 0 C18 0 18 0 24 4 C26.3941161 6.3941161 26.29598923 7.03786311 26.3125 10.3125 C26.19565939 14.35648343 25.81277537 16.91502056 23 20 C16.84504389 23.79773888 11.11125697 23.23970529 4 23 C4 27.95 4 32.9 4 38 C2.68 38 1.36 38 0 38 C0 25.46 0 12.92 0 0 Z " fill="#F2F2F2" transform="translate(1265,978)"/>
<path d="M0 0 C21.69712794 0 21.69712794 0 27.609375 5.49609375 C31.99929974 10.4409247 32.34834715 14.799944 32.28125 21.140625 C31.73332527 26.71119307 29.52617803 30.51295474 25.5625 34.375 C16.66928906 40.01459718 12.40430503 38 0 38 C0 25.46 0 12.92 0 0 Z M4 4 C4 13.9 4 23.8 4 34 C16.55416191 34.97095589 16.55416191 34.97095589 21.6875 32.3125 C25.97546958 28.02453042 27.44271628 24.64173493 27.5 18.5625 C27.37658959 13.05428593 27.37658959 13.05428593 24.875 8.3125 C17.92313688 2.72078401 13.62547992 4 4 4 Z " fill="#EDEDED" transform="translate(826,978)"/>
<path d="M0 0 C5.62481238 1.12496248 5.62481238 1.12496248 8.0859375 4.68359375 C8.62476563 5.44736328 9.16359375 6.21113281 9.71875 6.99804688 C10.2653125 7.80306641 10.811875 8.60808594 11.375 9.4375 C12.18324219 10.59282227 12.18324219 10.59282227 13.0078125 11.77148438 C14.6842564 14.17239154 16.34194768 16.58635507 18 19 C20.31 22.3 22.62 25.6 25 29 C25.33 19.43 25.66 9.86 26 0 C27.32 0 28.64 0 30 0 C30 12.54 30 25.08 30 38 C24.3756329 36.87512658 24.3756329 36.87512658 22.1328125 33.53515625 C21.64264648 32.82174072 21.15248047 32.1083252 20.64746094 31.37329102 C20.14504883 30.61072998 19.64263672 29.84816895 19.125 29.0625 C18.34044434 27.90802368 18.34044434 27.90802368 17.54003906 26.73022461 C16.49764362 25.19612408 15.46041575 23.65849794 14.42871094 22.1171875 C12.58946256 19.39163009 10.67220785 16.73005375 8.75 14.0625 C6 10.2452381 6 10.2452381 6 8 C5.34 8 4.68 8 4 8 C4 17.9 4 27.8 4 38 C2.68 38 1.36 38 0 38 C0 25.46 0 12.92 0 0 Z " fill="#F0F0F0" transform="translate(615,978)"/>
<path d="M0 0 C4.69937444 2.05063612 7.55204745 5.20516969 10.08203125 9.59375 C12.14986295 15.01410883 11.92916424 20.84914696 10.30078125 26.37109375 C7.91409653 31.69833517 4.25309088 35.37345456 -1 38 C-11.60402883 39.17163395 -11.60402883 39.17163395 -16.30859375 36.87109375 C-20.80595834 33.16681281 -23.64661654 29.1274436 -24.3125 23.234375 C-24.57707903 16.65297156 -24.05522575 11.34102904 -20 6 C-13.8436068 -0.28203388 -8.54448959 -0.77269958 0 0 Z M-18 10 C-19.46230215 12.92460429 -19.20908727 15.55652824 -19.25 18.8125 C-19.27578125 20.03582031 -19.3015625 21.25914062 -19.328125 22.51953125 C-18.89023658 27.16427631 -17.47030671 29.57942883 -14.15234375 32.78515625 C-10.05364993 35.09857509 -5.55103769 34.59508368 -1 34 C3.81323883 31.49310478 5.38888843 28.08772075 7 23 C7.81043661 17.36024933 6.80209609 13.02444815 4 8 C1.74158657 5.33096595 0.13799155 4.2221885 -3.30078125 3.55078125 C-9.97660991 3.09492042 -13.70077174 4.92507 -18 10 Z " fill="#EBEBEB" transform="translate(1206,978)"/>
<path d="M0 0 C1.32 0 2.64 0 4 0 C4 5.61 4 11.22 4 17 C11.26 17 18.52 17 26 17 C26 11.39 26 5.78 26 0 C27.32 0 28.64 0 30 0 C30 12.54 30 25.08 30 38 C28.68 38 27.36 38 26 38 C26 32.39 26 26.78 26 21 C19.07 21 12.14 21 5 21 C5 26.61 5 32.22 5 38 C3.35 38 1.7 38 0 38 C0 25.46 0 12.92 0 0 Z " fill="#EAEAEA" transform="translate(694,978)"/>
<path d="M0 0 C7.59 0 15.18 0 23 0 C23 1.32 23 2.64 23 4 C17.06 4 11.12 4 5 4 C5 8.29 5 12.58 5 17 C10.61 17 16.22 17 22 17 C22 18.32 22 19.64 22 21 C16.39 21 10.78 21 5 21 C5 25.29 5 29.58 5 34 C10.94 34 16.88 34 23 34 C23 35.32 23 36.64 23 38 C15.41 38 7.82 38 0 38 C0 25.46 0 12.92 0 0 Z " fill="#DEDEDE" transform="translate(1047,978)"/>
<path d="M0 0 C7.26 0 14.52 0 22 0 C22 1.32 22 2.64 22 4 C16.06 4 10.12 4 4 4 C4 8.29 4 12.58 4 17 C9.94 17 15.88 17 22 17 C22 18.32 22 19.64 22 21 C16.06 21 10.12 21 4 21 C4 25.29 4 29.58 4 34 C10.27 34 16.54 34 23 34 C23 35.32 23 36.64 23 38 C15.41 38 7.82 38 0 38 C0 25.46 0 12.92 0 0 Z " fill="#EAEAEA" transform="translate(906,978)"/>
<path d="M0 0 C7.26 0 14.52 0 22 0 C22 1.32 22 2.64 22 4 C16.06 4 10.12 4 4 4 C4 8.29 4 12.58 4 17 C9.61 17 15.22 17 21 17 C21 18.32 21 19.64 21 21 C15.39 21 9.78 21 4 21 C4 25.29 4 29.58 4 34 C9.94 34 15.88 34 22 34 C22 35.32 22 36.64 22 38 C14.74 38 7.48 38 0 38 C0 25.46 0 12.92 0 0 Z " fill="#E8E8E8" transform="translate(1338,978)"/>
<path d="M0 0 C1.32 0 2.64 0 4 0 C5.10677208 3.29079625 6.20992234 6.58279628 7.3125 9.875 C7.62123047 10.7928125 7.92996094 11.710625 8.24804688 12.65625 C10.28252577 18.73827113 12.19587114 24.84572083 14 31 C16.04196533 27.93705201 17.0267474 25.31140007 18.20703125 21.8359375 C18.62919922 20.63195312 19.05136719 19.42796875 19.48632812 18.1875 C20.15430558 16.27688257 20.81585336 14.36501449 21.46020508 12.44628906 C22.08614987 10.59054684 22.73997004 8.74428031 23.39453125 6.8984375 C23.77456299 5.79161621 24.15459473 4.68479492 24.54614258 3.54443359 C26 1 26 1 28.6628418 0.13134766 C29.434104 0.08800293 30.20536621 0.0446582 31 0 C28.38548015 8.12910439 25.35854682 16.08847874 22.3125 24.0625 C21.79605426 25.41855517 21.27977693 26.7746745 20.76367188 28.13085938 C19.51105393 31.42131425 18.25616389 34.71089693 17 38 C15.02 38 13.04 38 11 38 C10.69707031 37.030625 10.39414062 36.06125 10.08203125 35.0625 C9.8819043 34.42231934 9.68177734 33.78213867 9.47558594 33.12255859 C9.02910467 31.69335825 8.58315123 30.26399292 8.13769531 28.83447266 C6.96724082 25.08097449 5.78860616 21.33049932 4.58984375 17.5859375 C4.36514404 16.87953125 4.14044434 16.173125 3.90893555 15.4453125 C3.48008657 14.09791 3.04811858 12.75149493 2.61254883 11.40625 C1.4138083 7.62519193 0.55582188 3.92700239 0 0 Z " fill="#ECECEC" transform="translate(972,978)"/>
<path d="M0 0 C9.57 0 19.14 0 29 0 C29 1.32 29 2.64 29 4 C25.04 4 21.08 4 17 4 C17 15.22 17 26.44 17 38 C15.35 38 13.7 38 12 38 C12 26.78 12 15.56 12 4 C8.04 4 4.08 4 0 4 C0 2.68 0 1.36 0 0 Z " fill="#DFDFDF" transform="translate(488,978)"/>
<path d="M0 0 C11.78465804 -0.43114603 11.78465804 -0.43114603 17 3 C18.84710505 4.84710505 18.34739293 7.42527454 18.5234375 9.89453125 C17.68797287 13.25509419 15.90071477 14.24707815 13 16 C8.59901209 16.51594231 4.44953234 16.17977908 0 16 C0 10.72 0 5.44 0 0 Z " fill="#0D0D0D" transform="translate(1269,981)"/>
<path d="M0 0 C1.32 0 2.64 0 4 0 C4 11.22 4 22.44 4 34 C9.94 34 15.88 34 22 34 C22 35.32 22 36.64 22 38 C14.74 38 7.48 38 0 38 C0 25.46 0 12.92 0 0 Z " fill="#F4F4F4" transform="translate(1117,978)"/>
<path d="M0 0 C10.35191775 -0.36971135 10.35191775 -0.36971135 13.328125 1.328125 C15 3 15 3 15.5 5.9375 C15 9 15 9 13.6875 11.375 C9.29090442 14.03340663 5.0628521 13.2410882 0 13 C0 8.71 0 4.42 0 0 Z " fill="#030303" transform="translate(1412,982)"/>
<path d="M0 0 C1.32 0 2.64 0 4 0 C4 12.54 4 25.08 4 38 C2.68 38 1.36 38 0 38 C0 25.46 0 12.92 0 0 Z " fill="#FDFDFD" transform="translate(562,978)"/>
</svg>
